<svg xmlns="http://www.w3.org/2000/svg" xmlns:xlink="http://www.w3.org/1999/xlink" width="1920" zoomAndPan="magnify" viewBox="0 0 1440 809.999993" height="1080" preserveAspectRatio="xMidYMid meet" version="1.0"><defs><clipPath id="85c292b518"><path d="M 0 75.601562 L 1440 75.601562 L 1440 808 L 0 808 Z M 0 75.601562 " clip-rule="nonzero"/></clipPath><clipPath id="faeb0c22fd"><path d="M 0 0 L 1440 0 L 1440 276.160156 L 0 276.160156 Z M 0 0 " clip-rule="nonzero"/></clipPath></defs><g clip-path="url(#85c292b518)"><path fill="#8b9ef5" d="M 1439.328125 753.652344 C 1402.289062 722.289062 1364.808594 680.09375 1314.863281 675.140625 C 1265.238281 670.222656 1234.632812 698.472656 1199.949219 729.320312 C 1183.289062 744.101562 1154.878906 773.871094 1129.667969 763.839844 C 1065.777344 738.347656 1049.796875 639.898438 976.957031 626.472656 C 876.425781 607.933594 828.71875 740.667969 740.015625 751.253906 C 683.71875 758.007812 681.882812 640.777344 612.71875 675.976562 C 575.039062 695.15625 523.695312 804.636719 497.765625 807.394531 C 473.390625 809.949219 448.058594 750.695312 436.910156 735.273438 C 401.152344 685.765625 354.800781 642.65625 294.148438 626.753906 C 191.023438 599.703125 81.0625 652.285156 0.753906 713.578125 L 0.753906 75.480469 L 1439.328125 75.480469 Z M 1439.328125 753.652344 " fill-opacity="1" fill-rule="nonzero"/></g><g clip-path="url(#faeb0c22fd)"><path fill="#8b9ef5" d="M 0 -2.398438 L 1439.582031 -2.398438 L 1439.582031 276.160156 L 0 276.160156 Z M 0 -2.398438 " fill-opacity="1" fill-rule="nonzero"/></g></svg>