<svg xmlns="http://www.w3.org/2000/svg" xmlns:xlink="http://www.w3.org/1999/xlink" width="1920" zoomAndPan="magnify" viewBox="0 0 1440 809.999993" height="1080" preserveAspectRatio="xMidYMid meet" version="1.0"><defs><clipPath id="0a9eabf503"><path d="M 0 205.199219 L 1440 205.199219 L 1440 802 L 0 802 Z M 0 205.199219 " clip-rule="nonzero"/></clipPath><clipPath id="bc7f9c26cf"><path d="M 0 0 L 1440 0 L 1440 278.558594 L 0 278.558594 Z M 0 0 " clip-rule="nonzero"/></clipPath></defs><g clip-path="url(#0a9eabf503)"><path fill="#8b9ef5" d="M 0.878906 205.042969 L 1439.121094 205.042969 L 1439.121094 783.898438 C 1436.167969 784.6875 1433.15625 785.5 1430.078125 786.351562 C 1384.65625 798.890625 1334.621094 809.824219 1289.097656 792.445312 C 1208.480469 761.664062 1155.277344 679.136719 1066.160156 665.304688 C 958.652344 648.625 895.289062 762.898438 796.71875 760.660156 C 702.375 758.519531 641.5 651.984375 542.667969 648.140625 C 434.6875 643.941406 373.46875 746.121094 273.777344 765.863281 C 212.804688 777.941406 171.367188 704.832031 112.417969 720.460938 C 87.949219 726.945312 39.632812 769.242188 0.878906 790.355469 Z M 0.878906 205.042969 " fill-opacity="1" fill-rule="nonzero"/></g><g clip-path="url(#bc7f9c26cf)"><path fill="#8b9ef5" d="M 0 0 L 1439.582031 0 L 1439.582031 278.558594 L 0 278.558594 Z M 0 0 " fill-opacity="1" fill-rule="nonzero"/></g></svg>