<svg xmlns="http://www.w3.org/2000/svg" xmlns:xlink="http://www.w3.org/1999/xlink" width="6900" zoomAndPan="magnify" viewBox="0 0 5175 2550.000002" height="3400" preserveAspectRatio="xMidYMid meet" version="1.0"><path fill="#ebf3fa" d="M 5171.601562 2346.613281 C 5038.542969 2233.9375 4903.902344 2082.363281 4724.480469 2064.5625 C 4546.210938 2046.910156 4436.261719 2148.390625 4311.667969 2259.199219 C 4251.816406 2312.308594 4149.757812 2419.242188 4059.1875 2383.214844 C 3829.671875 2291.640625 3772.257812 1937.964844 3510.589844 1889.734375 C 3149.449219 1823.132812 2978.066406 2299.964844 2659.410156 2338.003906 C 2457.167969 2362.257812 2450.566406 1941.121094 2202.101562 2067.578125 C 2066.746094 2136.476562 1882.300781 2529.769531 1789.144531 2539.671875 C 1701.585938 2548.859375 1610.585938 2335.992188 1570.539062 2280.585938 C 1442.074219 2102.746094 1275.566406 1947.867188 1057.679688 1890.738281 C 687.207031 1793.566406 292.195312 1982.460938 3.683594 2202.644531 L 3.683594 -89.644531 L 5171.601562 -89.644531 Z M 5171.601562 2346.613281 " fill-opacity="1" fill-rule="nonzero"/></svg>