<svg xmlns="http://www.w3.org/2000/svg" xmlns:xlink="http://www.w3.org/1999/xlink" width="500" zoomAndPan="magnify" viewBox="0 0 375 149.999998" height="200" preserveAspectRatio="xMidYMid meet" version="1.0"><defs><g/><clipPath id="00f9334e74"><path d="M 78.371094 45.515625 L 145.980469 45.515625 L 145.980469 113.128906 L 78.371094 113.128906 Z M 78.371094 45.515625 " clip-rule="nonzero"/></clipPath><clipPath id="af80235017"><path d="M 112.175781 45.515625 C 93.503906 45.515625 78.371094 60.652344 78.371094 79.324219 C 78.371094 97.992188 93.503906 113.128906 112.175781 113.128906 C 130.847656 113.128906 145.980469 97.992188 145.980469 79.324219 C 145.980469 60.652344 130.847656 45.515625 112.175781 45.515625 Z M 112.175781 45.515625 " clip-rule="nonzero"/></clipPath><clipPath id="6765bfa695"><path d="M 78.371094 45.515625 L 145.871094 45.515625 L 145.871094 113.015625 L 78.371094 113.015625 Z M 78.371094 45.515625 " clip-rule="nonzero"/></clipPath><clipPath id="830e369c7c"><path d="M 112.171875 45.515625 C 93.503906 45.515625 78.371094 60.652344 78.371094 79.320312 C 78.371094 97.988281 93.503906 113.121094 112.171875 113.121094 C 130.839844 113.121094 145.976562 97.988281 145.976562 79.320312 C 145.976562 60.652344 130.839844 45.515625 112.171875 45.515625 Z M 112.171875 45.515625 " clip-rule="nonzero"/></clipPath><clipPath id="942566bf98"><path d="M 88.9375 56.085938 L 135.414062 56.085938 L 135.414062 102.558594 L 88.9375 102.558594 Z M 88.9375 56.085938 " clip-rule="nonzero"/></clipPath><clipPath id="97a726f6c0"><path d="M 112.175781 56.085938 C 99.34375 56.085938 88.9375 66.488281 88.9375 79.324219 C 88.9375 92.15625 99.34375 102.558594 112.175781 102.558594 C 125.007812 102.558594 135.414062 92.15625 135.414062 79.324219 C 135.414062 66.488281 125.007812 56.085938 112.175781 56.085938 Z M 112.175781 56.085938 " clip-rule="nonzero"/></clipPath><clipPath id="d56aeeb831"><path d="M 98.863281 66.011719 L 125.488281 66.011719 L 125.488281 92.636719 L 98.863281 92.636719 Z M 98.863281 66.011719 " clip-rule="nonzero"/></clipPath><clipPath id="f05ea90c7c"><path d="M 112.175781 66.011719 C 104.824219 66.011719 98.863281 71.96875 98.863281 79.324219 C 98.863281 86.675781 104.824219 92.636719 112.175781 92.636719 C 119.527344 92.636719 125.488281 86.675781 125.488281 79.324219 C 125.488281 71.96875 119.527344 66.011719 112.175781 66.011719 Z M 112.175781 66.011719 " clip-rule="nonzero"/></clipPath><clipPath id="49f57278f3"><path d="M 115 90 L 139 90 L 139 118 L 115 118 Z M 115 90 " clip-rule="nonzero"/></clipPath><clipPath id="6d5433a55e"><path d="M 115.789062 96.984375 L 124.550781 90.945312 L 138.699219 111.46875 L 129.9375 117.507812 Z M 115.789062 96.984375 " clip-rule="nonzero"/></clipPath></defs><g fill="#8798f1" fill-opacity="1"><g transform="translate(28.276568, 112.688233)"><g><path d="M 20.109375 -8.859375 L 49.3125 -8.859375 L 49.3125 0 L 9.21875 0 L 9.21875 -83.40625 L 20.109375 -83.40625 Z M 20.109375 -8.859375 "/></g></g></g><g fill="#8798f1" fill-opacity="1"><g transform="translate(79.980529, 112.688233)"><g/></g></g><g fill="#8798f1" fill-opacity="1"><g transform="translate(111.930474, 112.688233)"><g/></g></g><g fill="#8798f1" fill-opacity="1"><g transform="translate(143.8845, 112.688233)"><g><path d="M 32.4375 1.078125 C 27.40625 1.078125 22.894531 0.222656 18.90625 -1.484375 C 14.914062 -3.203125 11.765625 -5.597656 9.453125 -8.671875 C 7.140625 -11.742188 5.863281 -15.273438 5.625 -19.265625 L 16.875 -19.265625 C 17.195312 -15.992188 18.734375 -13.320312 21.484375 -11.25 C 24.234375 -9.175781 27.84375 -8.140625 32.3125 -8.140625 C 36.457031 -8.140625 39.726562 -9.054688 42.125 -10.890625 C 44.519531 -12.722656 45.71875 -15.035156 45.71875 -17.828125 C 45.71875 -20.703125 44.441406 -22.835938 41.890625 -24.234375 C 39.335938 -25.628906 35.382812 -27.003906 30.03125 -28.359375 C 25.164062 -29.640625 21.195312 -30.9375 18.125 -32.25 C 15.050781 -33.5625 12.414062 -35.515625 10.21875 -38.109375 C 8.03125 -40.703125 6.9375 -44.113281 6.9375 -48.34375 C 6.9375 -51.695312 7.929688 -54.769531 9.921875 -57.5625 C 11.921875 -60.351562 14.753906 -62.566406 18.421875 -64.203125 C 22.097656 -65.835938 26.289062 -66.65625 31 -66.65625 C 38.257812 -66.65625 44.117188 -64.816406 48.578125 -61.140625 C 53.046875 -57.472656 55.441406 -52.453125 55.765625 -46.078125 L 44.875 -46.078125 C 44.632812 -49.503906 43.257812 -52.253906 40.75 -54.328125 C 38.238281 -56.398438 34.867188 -57.4375 30.640625 -57.4375 C 26.722656 -57.4375 23.609375 -56.597656 21.296875 -54.921875 C 18.984375 -53.253906 17.828125 -51.0625 17.828125 -48.34375 C 17.828125 -46.1875 18.523438 -44.410156 19.921875 -43.015625 C 21.316406 -41.617188 23.070312 -40.503906 25.1875 -39.671875 C 27.300781 -38.835938 30.234375 -37.898438 33.984375 -36.859375 C 38.691406 -35.578125 42.519531 -34.316406 45.46875 -33.078125 C 48.425781 -31.847656 50.960938 -29.992188 53.078125 -27.515625 C 55.191406 -25.046875 56.285156 -21.816406 56.359375 -17.828125 C 56.359375 -14.242188 55.359375 -11.015625 53.359375 -8.140625 C 51.367188 -5.265625 48.554688 -3.007812 44.921875 -1.375 C 41.296875 0.257812 37.132812 1.078125 32.4375 1.078125 Z M 32.4375 1.078125 "/></g></g></g><g fill="#8798f1" fill-opacity="1"><g transform="translate(206.348442, 112.688233)"><g><path d="M 22.5 -56.609375 L 22.5 -17.953125 C 22.5 -14.753906 23.175781 -12.5 24.53125 -11.1875 C 25.882812 -9.875 28.238281 -9.21875 31.59375 -9.21875 L 39.609375 -9.21875 L 39.609375 0 L 29.796875 0 C 23.734375 0 19.1875 -1.394531 16.15625 -4.1875 C 13.125 -6.976562 11.609375 -11.566406 11.609375 -17.953125 L 11.609375 -56.609375 L 3.109375 -56.609375 L 3.109375 -65.578125 L 11.609375 -65.578125 L 11.609375 -82.09375 L 22.5 -82.09375 L 22.5 -65.578125 L 39.609375 -65.578125 L 39.609375 -56.609375 Z M 22.5 -56.609375 "/></g></g></g><g fill="#8798f1" fill-opacity="1"><g transform="translate(249.905667, 112.688233)"><g><path d="M 20.109375 -88.5625 L 20.109375 0 L 9.21875 0 L 9.21875 -88.5625 Z M 20.109375 -88.5625 "/></g></g></g><g fill="#8798f1" fill-opacity="1"><g transform="translate(279.342695, 112.688233)"><g><path d="M 65.703125 -65.578125 L 26.203125 30.875 L 14.953125 30.875 L 27.890625 -0.71875 L 1.4375 -65.578125 L 13.515625 -65.578125 L 34.109375 -12.453125 L 54.453125 -65.578125 Z M 65.703125 -65.578125 "/></g></g></g><g clip-path="url(#00f9334e74)"><g clip-path="url(#af80235017)"><path fill="#ffffff" d="M 78.371094 45.515625 L 145.980469 45.515625 L 145.980469 113.128906 L 78.371094 113.128906 Z M 78.371094 45.515625 " fill-opacity="1" fill-rule="nonzero"/></g></g><g clip-path="url(#6765bfa695)"><g clip-path="url(#830e369c7c)"><path stroke-linecap="butt" transform="matrix(0.75, 0, 0, 0.75, 78.370122, 45.517228)" fill="none" stroke-linejoin="miter" d="M 45.069007 -0.00213753 C 20.178381 -0.00213753 0.001296 20.180155 0.001296 45.070782 C 0.001296 69.961408 20.178381 90.138493 45.069007 90.138493 C 69.959633 90.138493 90.141926 69.961408 90.141926 45.070782 C 90.141926 20.180155 69.959633 -0.00213753 45.069007 -0.00213753 Z M 45.069007 -0.00213753 " stroke="#8798f1" stroke-width="30" stroke-opacity="1" stroke-miterlimit="4"/></g></g><g clip-path="url(#942566bf98)"><g clip-path="url(#97a726f6c0)"><path fill="#ffffff" d="M 88.9375 56.085938 L 135.414062 56.085938 L 135.414062 102.558594 L 88.9375 102.558594 Z M 88.9375 56.085938 " fill-opacity="1" fill-rule="nonzero"/></g></g><g clip-path="url(#d56aeeb831)"><g clip-path="url(#f05ea90c7c)"><path fill="#f18f87" d="M 98.863281 66.011719 L 125.488281 66.011719 L 125.488281 92.636719 L 98.863281 92.636719 Z M 98.863281 66.011719 " fill-opacity="1" fill-rule="nonzero"/></g></g><g clip-path="url(#49f57278f3)"><g clip-path="url(#6d5433a55e)"><path fill="#ffffff" d="M 115.789062 96.984375 L 124.550781 90.945312 L 138.707031 111.480469 L 129.945312 117.519531 Z M 115.789062 96.984375 " fill-opacity="1" fill-rule="nonzero"/></g></g></svg>