<svg xmlns="http://www.w3.org/2000/svg" xmlns:xlink="http://www.w3.org/1999/xlink" width="500" zoomAndPan="magnify" viewBox="0 0 375 149.999998" height="200" preserveAspectRatio="xMidYMid meet" version="1.0"><defs><g/><clipPath id="b7badc0f8a"><path d="M 78.371094 45.515625 L 145.980469 45.515625 L 145.980469 113.128906 L 78.371094 113.128906 Z M 78.371094 45.515625 " clip-rule="nonzero"/></clipPath><clipPath id="6db94eec51"><path d="M 112.175781 45.515625 C 93.503906 45.515625 78.371094 60.652344 78.371094 79.324219 C 78.371094 97.992188 93.503906 113.128906 112.175781 113.128906 C 130.847656 113.128906 145.980469 97.992188 145.980469 79.324219 C 145.980469 60.652344 130.847656 45.515625 112.175781 45.515625 Z M 112.175781 45.515625 " clip-rule="nonzero"/></clipPath><clipPath id="fc438eeb4d"><path d="M 78.371094 45.515625 L 145.871094 45.515625 L 145.871094 113.015625 L 78.371094 113.015625 Z M 78.371094 45.515625 " clip-rule="nonzero"/></clipPath><clipPath id="b9d025f591"><path d="M 112.171875 45.515625 C 93.503906 45.515625 78.371094 60.652344 78.371094 79.320312 C 78.371094 97.988281 93.503906 113.121094 112.171875 113.121094 C 130.839844 113.121094 145.976562 97.988281 145.976562 79.320312 C 145.976562 60.652344 130.839844 45.515625 112.171875 45.515625 Z M 112.171875 45.515625 " clip-rule="nonzero"/></clipPath><clipPath id="a40b7617ec"><path d="M 88.9375 56.085938 L 135.414062 56.085938 L 135.414062 102.558594 L 88.9375 102.558594 Z M 88.9375 56.085938 " clip-rule="nonzero"/></clipPath><clipPath id="84369d5bd2"><path d="M 112.175781 56.085938 C 99.34375 56.085938 88.9375 66.488281 88.9375 79.324219 C 88.9375 92.15625 99.34375 102.558594 112.175781 102.558594 C 125.007812 102.558594 135.414062 92.15625 135.414062 79.324219 C 135.414062 66.488281 125.007812 56.085938 112.175781 56.085938 Z M 112.175781 56.085938 " clip-rule="nonzero"/></clipPath><clipPath id="27f54acd4d"><path d="M 98.863281 66.011719 L 125.488281 66.011719 L 125.488281 92.636719 L 98.863281 92.636719 Z M 98.863281 66.011719 " clip-rule="nonzero"/></clipPath><clipPath id="5b833952e9"><path d="M 112.175781 66.011719 C 104.824219 66.011719 98.863281 71.96875 98.863281 79.324219 C 98.863281 86.675781 104.824219 92.636719 112.175781 92.636719 C 119.527344 92.636719 125.488281 86.675781 125.488281 79.324219 C 125.488281 71.96875 119.527344 66.011719 112.175781 66.011719 Z M 112.175781 66.011719 " clip-rule="nonzero"/></clipPath><clipPath id="d1e787ccb5"><path d="M 115 90 L 139 90 L 139 118 L 115 118 Z M 115 90 " clip-rule="nonzero"/></clipPath><clipPath id="42b9a8a07f"><path d="M 115.789062 96.984375 L 124.550781 90.945312 L 138.699219 111.46875 L 129.9375 117.507812 Z M 115.789062 96.984375 " clip-rule="nonzero"/></clipPath></defs><path stroke-linecap="butt" transform="matrix(1.133238, 0, 0, 1.133238, 28.258861, -11.967893)" fill="none" stroke-linejoin="miter" d="M 17.754483 102.188491 L 43.534466 102.188491 L 43.534466 109.999353 L 8.137401 109.999353 L 8.137401 36.395933 L 17.754483 36.395933 Z M 17.754483 102.188491 " stroke="#8798f1" stroke-width="1.45211" stroke-opacity="1" stroke-miterlimit="4"/><path stroke-linecap="butt" transform="matrix(1.133238, 0, 0, 1.133238, 28.258861, -11.967893)" fill="none" stroke-linejoin="miter" d="M 130.650058 110.954168 C 126.213791 110.954168 122.235973 110.199278 118.713157 108.686053 C 115.186894 107.172828 112.405179 105.059827 110.357671 102.343605 C 108.330846 99.627383 107.214023 96.514757 107.007204 93.009176 L 116.934514 93.009176 C 117.206826 95.880513 118.558043 98.234802 120.981272 100.07549 C 123.421736 101.895497 126.610194 102.805501 130.546649 102.805501 C 134.207344 102.805501 137.092469 101.998907 139.208916 100.382272 C 141.321916 98.769084 142.38014 96.731917 142.38014 94.274219 C 142.38014 91.730345 141.252977 89.848293 139.002097 88.628061 C 136.751217 87.390594 133.259424 86.170362 128.533611 84.967365 C 124.23867 83.850543 120.729642 82.716486 118.016867 81.561747 C 115.317879 80.39322 112.99806 78.666281 111.053962 76.380932 C 109.130545 74.078347 108.168837 71.062237 108.168837 67.332602 C 108.168837 64.375091 109.044371 61.66921 110.795438 59.211511 C 112.549952 56.736578 115.042121 54.785585 118.271943 53.358535 C 121.522448 51.914249 125.224507 51.19383 129.385015 51.19383 C 135.796403 51.19383 140.970324 52.807017 144.906778 56.040287 C 148.839786 59.27011 150.956233 63.706377 151.249226 69.342193 L 141.632145 69.342193 C 141.425326 66.319189 140.211988 63.895961 137.995578 62.072507 C 135.779168 60.235265 132.804422 59.314921 129.074787 59.314921 C 125.62091 59.314921 122.870218 60.052575 120.826158 61.53133 C 118.782097 63.010086 117.758343 64.943843 117.758343 67.332602 C 117.758343 69.238784 118.375353 70.814055 119.61282 72.051522 C 120.850286 73.271753 122.397982 74.250696 124.255905 74.988351 C 126.127617 75.729452 128.716301 76.553281 132.015063 77.463284 C 136.175571 78.597342 139.550167 79.714164 142.145745 80.817198 C 144.758558 81.899551 146.992203 83.529974 148.850126 85.715361 C 150.721838 87.897301 151.693887 90.751402 151.762827 94.274219 C 151.762827 97.435102 150.876952 100.289203 149.10865 102.833077 C 147.354136 105.359715 144.879202 107.345177 141.68385 108.789463 C 138.48505 110.233748 134.807119 110.954168 130.650058 110.954168 Z M 177.001634 60.062916 L 177.001634 94.170809 C 177.001634 96.973206 177.594515 98.958668 178.780277 100.127195 C 179.983274 101.295722 182.065251 101.878262 185.019315 101.878262 L 192.109759 101.878262 L 192.109759 109.999353 L 183.447491 109.999353 C 178.101221 109.999353 174.088933 108.772228 171.407181 106.314529 C 168.725428 103.839595 167.387999 99.789391 167.387999 94.170809 L 167.387999 60.062916 L 159.883918 60.062916 L 159.883918 52.121068 L 167.387999 52.121068 L 167.387999 37.554119 L 177.001634 37.554119 L 177.001634 52.121068 L 192.109759 52.121068 L 192.109759 60.062916 Z M 213.325937 31.856257 L 213.325937 109.999353 L 203.708855 109.999353 L 203.708855 31.856257 Z M 279.54592 52.121068 L 244.690032 137.251198 L 234.762722 137.251198 L 246.158447 109.354768 L 222.825821 52.121068 L 233.501126 52.121068 L 251.64949 99.017267 L 269.61861 52.121068 Z M 279.54592 52.121068 " stroke="#8798f1" stroke-width="1.45211" stroke-opacity="1" stroke-miterlimit="4"/><g fill="#ffffff" fill-opacity="1"><g transform="translate(28.276568, 112.688233)"><g><path d="M 20.109375 -8.859375 L 49.3125 -8.859375 L 49.3125 0 L 9.21875 0 L 9.21875 -83.40625 L 20.109375 -83.40625 Z M 20.109375 -8.859375 "/></g></g></g><g fill="#ffffff" fill-opacity="1"><g transform="translate(79.980529, 112.688233)"><g/></g></g><g fill="#ffffff" fill-opacity="1"><g transform="translate(111.930474, 112.688233)"><g/></g></g><g fill="#ffffff" fill-opacity="1"><g transform="translate(143.8845, 112.688233)"><g><path d="M 32.4375 1.078125 C 27.40625 1.078125 22.894531 0.222656 18.90625 -1.484375 C 14.914062 -3.203125 11.765625 -5.597656 9.453125 -8.671875 C 7.140625 -11.742188 5.863281 -15.273438 5.625 -19.265625 L 16.875 -19.265625 C 17.195312 -15.992188 18.734375 -13.320312 21.484375 -11.25 C 24.234375 -9.175781 27.84375 -8.140625 32.3125 -8.140625 C 36.457031 -8.140625 39.726562 -9.054688 42.125 -10.890625 C 44.519531 -12.722656 45.71875 -15.035156 45.71875 -17.828125 C 45.71875 -20.703125 44.441406 -22.835938 41.890625 -24.234375 C 39.335938 -25.628906 35.382812 -27.003906 30.03125 -28.359375 C 25.164062 -29.640625 21.195312 -30.9375 18.125 -32.25 C 15.050781 -33.5625 12.414062 -35.515625 10.21875 -38.109375 C 8.03125 -40.703125 6.9375 -44.113281 6.9375 -48.34375 C 6.9375 -51.695312 7.929688 -54.769531 9.921875 -57.5625 C 11.921875 -60.351562 14.753906 -62.566406 18.421875 -64.203125 C 22.097656 -65.835938 26.289062 -66.65625 31 -66.65625 C 38.257812 -66.65625 44.117188 -64.816406 48.578125 -61.140625 C 53.046875 -57.472656 55.441406 -52.453125 55.765625 -46.078125 L 44.875 -46.078125 C 44.632812 -49.503906 43.257812 -52.253906 40.75 -54.328125 C 38.238281 -56.398438 34.867188 -57.4375 30.640625 -57.4375 C 26.722656 -57.4375 23.609375 -56.597656 21.296875 -54.921875 C 18.984375 -53.253906 17.828125 -51.0625 17.828125 -48.34375 C 17.828125 -46.1875 18.523438 -44.410156 19.921875 -43.015625 C 21.316406 -41.617188 23.070312 -40.503906 25.1875 -39.671875 C 27.300781 -38.835938 30.234375 -37.898438 33.984375 -36.859375 C 38.691406 -35.578125 42.519531 -34.316406 45.46875 -33.078125 C 48.425781 -31.847656 50.960938 -29.992188 53.078125 -27.515625 C 55.191406 -25.046875 56.285156 -21.816406 56.359375 -17.828125 C 56.359375 -14.242188 55.359375 -11.015625 53.359375 -8.140625 C 51.367188 -5.265625 48.554688 -3.007812 44.921875 -1.375 C 41.296875 0.257812 37.132812 1.078125 32.4375 1.078125 Z M 32.4375 1.078125 "/></g></g></g><g fill="#ffffff" fill-opacity="1"><g transform="translate(206.348442, 112.688233)"><g><path d="M 22.5 -56.609375 L 22.5 -17.953125 C 22.5 -14.753906 23.175781 -12.5 24.53125 -11.1875 C 25.882812 -9.875 28.238281 -9.21875 31.59375 -9.21875 L 39.609375 -9.21875 L 39.609375 0 L 29.796875 0 C 23.734375 0 19.1875 -1.394531 16.15625 -4.1875 C 13.125 -6.976562 11.609375 -11.566406 11.609375 -17.953125 L 11.609375 -56.609375 L 3.109375 -56.609375 L 3.109375 -65.578125 L 11.609375 -65.578125 L 11.609375 -82.09375 L 22.5 -82.09375 L 22.5 -65.578125 L 39.609375 -65.578125 L 39.609375 -56.609375 Z M 22.5 -56.609375 "/></g></g></g><g fill="#ffffff" fill-opacity="1"><g transform="translate(249.905667, 112.688233)"><g><path d="M 20.109375 -88.5625 L 20.109375 0 L 9.21875 0 L 9.21875 -88.5625 Z M 20.109375 -88.5625 "/></g></g></g><g fill="#ffffff" fill-opacity="1"><g transform="translate(279.342695, 112.688233)"><g><path d="M 65.703125 -65.578125 L 26.203125 30.875 L 14.953125 30.875 L 27.890625 -0.71875 L 1.4375 -65.578125 L 13.515625 -65.578125 L 34.109375 -12.453125 L 54.453125 -65.578125 Z M 65.703125 -65.578125 "/></g></g></g><g clip-path="url(#b7badc0f8a)"><g clip-path="url(#6db94eec51)"><path fill="#fefefe" d="M 78.371094 45.515625 L 145.980469 45.515625 L 145.980469 113.128906 L 78.371094 113.128906 Z M 78.371094 45.515625 " fill-opacity="1" fill-rule="nonzero"/></g></g><g clip-path="url(#fc438eeb4d)"><g clip-path="url(#b9d025f591)"><path stroke-linecap="butt" transform="matrix(0.75, 0, 0, 0.75, 78.370122, 45.517228)" fill="none" stroke-linejoin="miter" d="M 45.069007 -0.00213753 C 20.178381 -0.00213753 0.001296 20.180155 0.001296 45.070782 C 0.001296 69.961408 20.178381 90.138493 45.069007 90.138493 C 69.959633 90.138493 90.141926 69.961408 90.141926 45.070782 C 90.141926 20.180155 69.959633 -0.00213753 45.069007 -0.00213753 Z M 45.069007 -0.00213753 " stroke="#8798f1" stroke-width="30" stroke-opacity="1" stroke-miterlimit="4"/></g></g><g clip-path="url(#a40b7617ec)"><g clip-path="url(#84369d5bd2)"><path fill="#ffffff" d="M 88.9375 56.085938 L 135.414062 56.085938 L 135.414062 102.558594 L 88.9375 102.558594 Z M 88.9375 56.085938 " fill-opacity="1" fill-rule="nonzero"/></g></g><g clip-path="url(#27f54acd4d)"><g clip-path="url(#5b833952e9)"><path fill="#f18f87" d="M 98.863281 66.011719 L 125.488281 66.011719 L 125.488281 92.636719 L 98.863281 92.636719 Z M 98.863281 66.011719 " fill-opacity="1" fill-rule="nonzero"/></g></g><g clip-path="url(#d1e787ccb5)"><g clip-path="url(#42b9a8a07f)"><path fill="#ffffff" d="M 115.789062 96.984375 L 124.550781 90.945312 L 138.707031 111.480469 L 129.945312 117.519531 Z M 115.789062 96.984375 " fill-opacity="1" fill-rule="nonzero"/></g></g></svg>